<svg width="550" height="450" viewBox="0 0 550 450" fill="none" xmlns="http://www.w3.org/2000/svg">
<g filter="url(#filter0_di)">
<rect x="25" y="21" width="500" height="400" fill="white"/>
<rect x="35" y="31" width="480" height="380" stroke="black" stroke-width="20"/>
</g>
<rect x="138.091" y="107.163" width="274.337" height="227.122" fill="#F5F5F5" stroke="black"/>
<path d="M242.544 155.663H235.806V122.959H242.544V155.663ZM257.615 122.959L266.016 146.678L274.371 122.959H283.221V155.663H276.46V146.723L277.134 131.292L268.307 155.663H263.68L254.875 131.315L255.549 146.723V155.663H248.811V122.959H257.615ZM307.973 148.924H296.158L293.912 155.663H286.747L298.921 122.959H305.165L317.406 155.663H310.241L307.973 148.924ZM297.978 143.466H306.153L302.043 131.225L297.978 143.466ZM257.997 205.53C256.784 206.982 255.07 208.113 252.854 208.921C250.637 209.715 248.182 210.112 245.486 210.112C242.656 210.112 240.171 209.498 238.029 208.27C235.903 207.027 234.256 205.23 233.088 202.879C231.935 200.528 231.343 197.766 231.313 194.591V192.368C231.313 189.103 231.86 186.281 232.953 183.9C234.061 181.504 235.648 179.677 237.715 178.419C239.796 177.147 242.23 176.51 245.015 176.51C248.893 176.51 251.925 177.439 254.111 179.295C256.298 181.137 257.593 183.825 257.997 187.359H251.438C251.139 185.487 250.473 184.117 249.439 183.249C248.421 182.38 247.014 181.946 245.217 181.946C242.926 181.946 241.181 182.807 239.983 184.529C238.785 186.251 238.179 188.811 238.164 192.21V194.299C238.164 197.728 238.815 200.319 240.118 202.071C241.421 203.823 243.33 204.699 245.846 204.699C248.376 204.699 250.181 204.16 251.259 203.082V197.444H245.127V192.48H257.997V205.53ZM283.153 195.49H270.216V204.25H285.399V209.663H263.478V176.959H285.355V182.417H270.216V190.211H283.153V195.49ZM260.221 230.959V252.5C260.221 256.078 259.098 258.908 256.852 260.99C254.62 263.071 251.566 264.112 247.688 264.112C243.869 264.112 240.837 263.101 238.591 261.08C236.345 259.058 235.199 256.28 235.154 252.747V230.959H241.893V252.544C241.893 254.686 242.402 256.25 243.42 257.239C244.453 258.212 245.876 258.699 247.688 258.699C251.476 258.699 253.4 256.707 253.46 252.724V230.959H260.221ZM272.484 252.14V263.663H265.746V230.959H278.504C280.96 230.959 283.116 231.409 284.973 232.307C286.844 233.206 288.282 234.486 289.285 236.148C290.288 237.795 290.79 239.674 290.79 241.786C290.79 244.99 289.689 247.521 287.488 249.377C285.302 251.219 282.27 252.14 278.392 252.14H272.484ZM272.484 246.682H278.504C280.286 246.682 281.641 246.263 282.569 245.424C283.513 244.586 283.984 243.388 283.984 241.831C283.984 240.228 283.513 238.933 282.569 237.945C281.626 236.957 280.323 236.447 278.661 236.417H272.484V246.682ZM302.178 258.25H316.485V263.663H295.439V230.959H302.178V258.25ZM258.716 302.052C258.716 305.272 258.147 308.094 257.009 310.52C255.871 312.946 254.239 314.818 252.112 316.135C250.001 317.453 247.575 318.112 244.835 318.112C242.125 318.112 239.706 317.46 237.58 316.158C235.454 314.855 233.807 312.998 232.639 310.587C231.471 308.162 230.879 305.376 230.864 302.232V300.615C230.864 297.395 231.441 294.565 232.594 292.125C233.762 289.669 235.401 287.79 237.513 286.487C239.639 285.169 242.065 284.51 244.79 284.51C247.515 284.51 249.934 285.169 252.045 286.487C254.171 287.79 255.811 289.669 256.964 292.125C258.132 294.565 258.716 297.388 258.716 300.592V302.052ZM251.888 300.57C251.888 297.141 251.274 294.535 250.046 292.753C248.818 290.972 247.066 290.081 244.79 290.081C242.529 290.081 240.785 290.964 239.557 292.731C238.329 294.483 237.707 297.058 237.692 300.458V302.052C237.692 305.391 238.306 307.982 239.534 309.824C240.762 311.666 242.529 312.586 244.835 312.586C247.096 312.586 248.833 311.703 250.046 309.936C251.259 308.154 251.873 305.564 251.888 302.165V300.57ZM281.581 310.924H269.767L267.521 317.663H260.355L272.529 284.959H278.773L291.015 317.663H283.85L281.581 310.924ZM271.586 305.466H279.762L275.651 293.225L271.586 305.466ZM294.069 317.663V284.959H304.132C307.007 284.959 309.575 285.611 311.836 286.914C314.112 288.201 315.886 290.043 317.159 292.439C318.432 294.82 319.068 297.53 319.068 300.57V302.075C319.068 305.114 318.439 307.817 317.182 310.183C315.939 312.549 314.179 314.383 311.903 315.686C309.627 316.989 307.059 317.648 304.199 317.663H294.069ZM300.808 290.417V312.25H304.064C306.7 312.25 308.714 311.389 310.106 309.667C311.499 307.944 312.21 305.481 312.24 302.277V300.547C312.24 297.223 311.551 294.708 310.174 293C308.796 291.278 306.782 290.417 304.132 290.417H300.808Z" fill="black"/>
<defs>
<filter id="filter0_di" x="0" y="0" width="550" height="450" filterUnits="userSpaceOnUse" color-interpolation-filters="sRGB">
<feFlood flood-opacity="0" result="BackgroundImageFix"/>
<feColorMatrix in="SourceAlpha" type="matrix" values="0 0 0 0 0 0 0 0 0 0 0 0 0 0 0 0 0 0 127 0"/>
<feOffset dy="4"/>
<feGaussianBlur stdDeviation="12.5"/>
<feColorMatrix type="matrix" values="0 0 0 0 0 0 0 0 0 0 0 0 0 0 0 0 0 0 0.25 0"/>
<feBlend mode="normal" in2="BackgroundImageFix" result="effect1_dropShadow"/>
<feBlend mode="normal" in="SourceGraphic" in2="effect1_dropShadow" result="shape"/>
<feColorMatrix in="SourceAlpha" type="matrix" values="0 0 0 0 0 0 0 0 0 0 0 0 0 0 0 0 0 0 127 0" result="hardAlpha"/>
<feMorphology radius="10" operator="erode" in="SourceAlpha" result="effect2_innerShadow"/>
<feOffset/>
<feGaussianBlur stdDeviation="26.5"/>
<feComposite in2="hardAlpha" operator="arithmetic" k2="-1" k3="1"/>
<feColorMatrix type="matrix" values="0 0 0 0 0 0 0 0 0 0 0 0 0 0 0 0 0 0 0.62 0"/>
<feBlend mode="normal" in2="shape" result="effect2_innerShadow"/>
</filter>
</defs>
</svg>
