<svg width="32" height="40" viewBox="0 0 32 40" fill="none" xmlns="http://www.w3.org/2000/svg">
<rect x="0.5" y="0.5" width="31" height="39" fill="white" stroke="black"/>
<path d="M15.2841 19.4016C16.1214 19.4016 16.8027 18.7204 16.8027 17.8831C16.8027 17.0457 16.1214 16.3645 15.2841 16.3645C14.4468 16.3645 13.7656 17.0457 13.7656 17.8831C13.7656 18.7204 14.4468 19.4016 15.2841 19.4016V19.4016ZM15.2841 17.2551C15.6304 17.2551 15.9121 17.5368 15.9121 17.8831C15.9121 18.2292 15.6304 18.5109 15.2841 18.5109C14.9379 18.5109 14.6563 18.2292 14.6563 17.8831C14.6563 17.5368 14.9379 17.2551 15.2841 17.2551Z" fill="black"/>
<path d="M23.0454 13.52H8.95541C8.64937 13.52 8.40039 13.769 8.40039 14.075V26.0013C8.40039 26.3073 8.64937 26.5563 8.95541 26.5563H23.0454C23.3514 26.5563 23.6004 26.3073 23.6004 26.0013V14.075C23.6004 13.769 23.3514 13.52 23.0454 13.52ZM22.7098 14.4106V21.4586L19.9087 18.6575C19.7261 18.4752 19.4291 18.4753 19.2465 18.6578L15.285 22.6194L12.7545 20.089C12.666 20.0004 12.5483 19.9515 12.423 19.9515C12.2979 19.9515 12.1803 20.0002 12.0918 20.0887L9.29102 22.8896V14.4106H22.7098ZM9.29102 25.6657V24.1491L12.423 21.017L14.9534 23.5474C15.042 23.636 15.1597 23.685 15.285 23.685C15.41 23.685 15.5277 23.6362 15.6161 23.5477L19.5777 19.586L22.7099 22.7182V25.6657H9.29102Z" fill="black"/>
</svg>
