<svg width="550" height="550" viewBox="0 0 550 550" fill="none" xmlns="http://www.w3.org/2000/svg">
<g filter="url(#filter0_di)">
<rect x="25" y="21" width="500" height="500" fill="white"/>
<rect x="35" y="31" width="480" height="480" stroke="black" stroke-width="20"/>
</g>
<rect x="138.091" y="128.578" width="274.337" height="284.152" fill="#F5F5F5" stroke="black"/>
<path d="M229.844 180.078H220.469V134.578H229.844V180.078ZM250.813 134.578L262.5 167.578L274.125 134.578H286.438V180.078H277.031V167.641L277.969 146.172L265.688 180.078H259.25L247 146.203L247.938 167.641V180.078H238.563V134.578H250.813ZM320.875 170.703H304.438L301.313 180.078H291.344L308.281 134.578H316.969L334 180.078H324.031L320.875 170.703ZM306.969 163.109H318.344L312.625 146.078L306.969 163.109ZM251.344 249.328C249.656 251.349 247.271 252.922 244.188 254.047C241.104 255.151 237.688 255.703 233.938 255.703C230 255.703 226.542 254.849 223.563 253.141C220.604 251.411 218.313 248.911 216.688 245.641C215.083 242.37 214.26 238.526 214.219 234.109V231.016C214.219 226.474 214.979 222.547 216.5 219.234C218.042 215.901 220.25 213.359 223.125 211.609C226.021 209.839 229.406 208.953 233.281 208.953C238.677 208.953 242.896 210.245 245.938 212.828C248.979 215.391 250.781 219.13 251.344 224.047H242.219C241.802 221.443 240.875 219.536 239.438 218.328C238.021 217.12 236.063 216.516 233.563 216.516C230.375 216.516 227.948 217.714 226.281 220.109C224.615 222.505 223.771 226.068 223.75 230.797V233.703C223.75 238.474 224.656 242.078 226.469 244.516C228.281 246.953 230.938 248.172 234.438 248.172C237.958 248.172 240.469 247.422 241.969 245.922V238.078H233.438V231.172H251.344V249.328ZM286.344 235.359H268.344V247.547H289.469V255.078H258.969V209.578H289.406V217.172H268.344V228.016H286.344V235.359ZM254.438 284.578V314.547C254.438 319.526 252.875 323.464 249.75 326.359C246.646 329.255 242.396 330.703 237 330.703C231.688 330.703 227.469 329.297 224.344 326.484C221.219 323.672 219.625 319.807 219.563 314.891V284.578H228.938V314.609C228.938 317.589 229.646 319.766 231.063 321.141C232.5 322.495 234.479 323.172 237 323.172C242.271 323.172 244.948 320.401 245.031 314.859V284.578H254.438ZM271.5 314.047V330.078H262.125V284.578H279.875C283.292 284.578 286.292 285.203 288.875 286.453C291.479 287.703 293.479 289.484 294.875 291.797C296.271 294.089 296.969 296.703 296.969 299.641C296.969 304.099 295.438 307.62 292.375 310.203C289.333 312.766 285.115 314.047 279.719 314.047H271.5ZM271.5 306.453H279.875C282.354 306.453 284.24 305.87 285.531 304.703C286.844 303.536 287.5 301.87 287.5 299.703C287.5 297.474 286.844 295.672 285.531 294.297C284.219 292.922 282.406 292.214 280.094 292.172H271.5V306.453ZM312.813 322.547H332.719V330.078H303.438V284.578H312.813V322.547ZM252.344 383.359C252.344 387.839 251.552 391.766 249.969 395.141C248.385 398.516 246.115 401.12 243.156 402.953C240.219 404.786 236.844 405.703 233.031 405.703C229.26 405.703 225.896 404.797 222.938 402.984C219.979 401.172 217.688 398.589 216.063 395.234C214.438 391.859 213.615 387.984 213.594 383.609V381.359C213.594 376.88 214.396 372.943 216 369.547C217.625 366.13 219.906 363.516 222.844 361.703C225.802 359.87 229.177 358.953 232.969 358.953C236.76 358.953 240.125 359.87 243.063 361.703C246.021 363.516 248.302 366.13 249.906 369.547C251.531 372.943 252.344 376.87 252.344 381.328V383.359ZM242.844 381.297C242.844 376.526 241.99 372.901 240.281 370.422C238.573 367.943 236.135 366.703 232.969 366.703C229.823 366.703 227.396 367.932 225.688 370.391C223.979 372.828 223.115 376.411 223.094 381.141V383.359C223.094 388.005 223.948 391.609 225.656 394.172C227.365 396.734 229.823 398.016 233.031 398.016C236.177 398.016 238.594 396.786 240.281 394.328C241.969 391.849 242.823 388.245 242.844 383.516V381.297ZM284.156 395.703H267.719L264.594 405.078H254.625L271.563 359.578H280.25L297.281 405.078H287.313L284.156 395.703ZM270.25 388.109H281.625L275.906 371.078L270.25 388.109ZM301.531 405.078V359.578H315.531C319.531 359.578 323.104 360.484 326.25 362.297C329.417 364.089 331.885 366.651 333.656 369.984C335.427 373.297 336.313 377.068 336.313 381.297V383.391C336.313 387.62 335.438 391.38 333.688 394.672C331.958 397.964 329.51 400.516 326.344 402.328C323.177 404.141 319.604 405.057 315.625 405.078H301.531ZM310.906 367.172V397.547H315.438C319.104 397.547 321.906 396.349 323.844 393.953C325.781 391.557 326.771 388.13 326.813 383.672V381.266C326.813 376.641 325.854 373.141 323.938 370.766C322.021 368.37 319.219 367.172 315.531 367.172H310.906Z" fill="black"/>
<defs>
<filter id="filter0_di" x="0" y="0" width="550" height="550" filterUnits="userSpaceOnUse" color-interpolation-filters="sRGB">
<feFlood flood-opacity="0" result="BackgroundImageFix"/>
<feColorMatrix in="SourceAlpha" type="matrix" values="0 0 0 0 0 0 0 0 0 0 0 0 0 0 0 0 0 0 127 0"/>
<feOffset dy="4"/>
<feGaussianBlur stdDeviation="12.5"/>
<feColorMatrix type="matrix" values="0 0 0 0 0 0 0 0 0 0 0 0 0 0 0 0 0 0 0.25 0"/>
<feBlend mode="normal" in2="BackgroundImageFix" result="effect1_dropShadow"/>
<feBlend mode="normal" in="SourceGraphic" in2="effect1_dropShadow" result="shape"/>
<feColorMatrix in="SourceAlpha" type="matrix" values="0 0 0 0 0 0 0 0 0 0 0 0 0 0 0 0 0 0 127 0" result="hardAlpha"/>
<feMorphology radius="10" operator="erode" in="SourceAlpha" result="effect2_innerShadow"/>
<feOffset/>
<feGaussianBlur stdDeviation="26.5"/>
<feComposite in2="hardAlpha" operator="arithmetic" k2="-1" k3="1"/>
<feColorMatrix type="matrix" values="0 0 0 0 0 0 0 0 0 0 0 0 0 0 0 0 0 0 0.62 0"/>
<feBlend mode="normal" in2="shape" result="effect2_innerShadow"/>
</filter>
</defs>
</svg>
