<svg width="475" height="590" viewBox="0 0 475 590" fill="none" xmlns="http://www.w3.org/2000/svg">
<g filter="url(#filter0_di)">
<rect x="25" y="21" width="425" height="540" fill="white"/>
<rect x="35" y="31" width="405" height="520" stroke="black" stroke-width="20"/>
</g>
<rect x="121.202" y="137.144" width="233.036" height="306.964" fill="#F5F5F5" stroke="black"/>
<path d="M192.344 199.644H182.969V154.144H192.344V199.644ZM213.312 154.144L225 187.144L236.625 154.144H248.937V199.644H239.531V187.207L240.469 165.738L228.187 199.644H221.75L209.5 165.769L210.437 187.207V199.644H201.062V154.144H213.312ZM283.375 190.269H266.937L263.812 199.644H253.844L270.781 154.144H279.469L296.5 199.644H286.531L283.375 190.269ZM269.469 182.676H280.844L275.125 165.644L269.469 182.676ZM213.844 268.894C212.156 270.915 209.771 272.488 206.687 273.613C203.604 274.717 200.187 275.269 196.437 275.269C192.5 275.269 189.042 274.415 186.062 272.707C183.104 270.978 180.812 268.478 179.187 265.207C177.583 261.936 176.76 258.092 176.719 253.676V250.582C176.719 246.04 177.479 242.113 179 238.801C180.542 235.467 182.75 232.926 185.625 231.176C188.521 229.405 191.906 228.519 195.781 228.519C201.177 228.519 205.396 229.811 208.437 232.394C211.479 234.957 213.281 238.696 213.844 243.613H204.719C204.302 241.009 203.375 239.103 201.937 237.894C200.521 236.686 198.562 236.082 196.062 236.082C192.875 236.082 190.448 237.28 188.781 239.676C187.115 242.071 186.271 245.634 186.25 250.363V253.269C186.25 258.04 187.156 261.644 188.969 264.082C190.781 266.519 193.437 267.738 196.937 267.738C200.458 267.738 202.969 266.988 204.469 265.488V257.644H195.937V250.738H213.844V268.894ZM248.844 254.926H230.844V267.113H251.969V274.644H221.469V229.144H251.906V236.738H230.844V247.582H248.844V254.926ZM216.937 304.144V334.113C216.937 339.092 215.375 343.03 212.25 345.926C209.146 348.821 204.896 350.269 199.5 350.269C194.187 350.269 189.969 348.863 186.844 346.051C183.719 343.238 182.125 339.373 182.062 334.457V304.144H191.437V334.176C191.437 337.155 192.146 339.332 193.562 340.707C195 342.061 196.979 342.738 199.5 342.738C204.771 342.738 207.448 339.967 207.531 334.426V304.144H216.937ZM234 333.613V349.644H224.625V304.144H242.375C245.792 304.144 248.792 304.769 251.375 306.019C253.979 307.269 255.979 309.051 257.375 311.363C258.771 313.655 259.469 316.269 259.469 319.207C259.469 323.665 257.937 327.186 254.875 329.769C251.833 332.332 247.615 333.613 242.219 333.613H234ZM234 326.019H242.375C244.854 326.019 246.74 325.436 248.031 324.269C249.344 323.103 250 321.436 250 319.269C250 317.04 249.344 315.238 248.031 313.863C246.719 312.488 244.906 311.78 242.594 311.738H234V326.019ZM275.312 342.113H295.219V349.644H265.937V304.144H275.312V342.113ZM214.844 402.926C214.844 407.405 214.052 411.332 212.469 414.707C210.885 418.082 208.615 420.686 205.656 422.519C202.719 424.353 199.344 425.269 195.531 425.269C191.76 425.269 188.396 424.363 185.437 422.551C182.479 420.738 180.187 418.155 178.562 414.801C176.937 411.426 176.115 407.551 176.094 403.176V400.926C176.094 396.446 176.896 392.509 178.5 389.113C180.125 385.696 182.406 383.082 185.344 381.269C188.302 379.436 191.677 378.519 195.469 378.519C199.26 378.519 202.625 379.436 205.562 381.269C208.521 383.082 210.802 385.696 212.406 389.113C214.031 392.509 214.844 396.436 214.844 400.894V402.926ZM205.344 400.863C205.344 396.092 204.49 392.467 202.781 389.988C201.073 387.509 198.635 386.269 195.469 386.269C192.323 386.269 189.896 387.498 188.187 389.957C186.479 392.394 185.615 395.978 185.594 400.707V402.926C185.594 407.571 186.448 411.176 188.156 413.738C189.865 416.301 192.323 417.582 195.531 417.582C198.677 417.582 201.094 416.353 202.781 413.894C204.469 411.415 205.323 407.811 205.344 403.082V400.863ZM246.656 415.269H230.219L227.094 424.644H217.125L234.062 379.144H242.75L259.781 424.644H249.812L246.656 415.269ZM232.75 407.676H244.125L238.406 390.644L232.75 407.676ZM264.031 424.644V379.144H278.031C282.031 379.144 285.604 380.051 288.75 381.863C291.917 383.655 294.385 386.217 296.156 389.551C297.927 392.863 298.812 396.634 298.812 400.863V402.957C298.812 407.186 297.937 410.946 296.187 414.238C294.458 417.53 292.01 420.082 288.844 421.894C285.677 423.707 282.104 424.623 278.125 424.644H264.031ZM273.406 386.738V417.113H277.937C281.604 417.113 284.406 415.915 286.344 413.519C288.281 411.123 289.271 407.696 289.312 403.238V400.832C289.312 396.207 288.354 392.707 286.437 390.332C284.521 387.936 281.719 386.738 278.031 386.738H273.406Z" fill="black"/>
<defs>
<filter id="filter0_di" x="0" y="0" width="475" height="590" filterUnits="userSpaceOnUse" color-interpolation-filters="sRGB">
<feFlood flood-opacity="0" result="BackgroundImageFix"/>
<feColorMatrix in="SourceAlpha" type="matrix" values="0 0 0 0 0 0 0 0 0 0 0 0 0 0 0 0 0 0 127 0"/>
<feOffset dy="4"/>
<feGaussianBlur stdDeviation="12.5"/>
<feColorMatrix type="matrix" values="0 0 0 0 0 0 0 0 0 0 0 0 0 0 0 0 0 0 0.25 0"/>
<feBlend mode="normal" in2="BackgroundImageFix" result="effect1_dropShadow"/>
<feBlend mode="normal" in="SourceGraphic" in2="effect1_dropShadow" result="shape"/>
<feColorMatrix in="SourceAlpha" type="matrix" values="0 0 0 0 0 0 0 0 0 0 0 0 0 0 0 0 0 0 127 0" result="hardAlpha"/>
<feMorphology radius="10" operator="erode" in="SourceAlpha" result="effect2_innerShadow"/>
<feOffset/>
<feGaussianBlur stdDeviation="26.5"/>
<feComposite in2="hardAlpha" operator="arithmetic" k2="-1" k3="1"/>
<feColorMatrix type="matrix" values="0 0 0 0 0 0 0 0 0 0 0 0 0 0 0 0 0 0 0.62 0"/>
<feBlend mode="normal" in2="shape" result="effect2_innerShadow"/>
</filter>
</defs>
</svg>
