<svg width="125" height="29" viewBox="0 0 125 29" fill="none" xmlns="http://www.w3.org/2000/svg">
<path d="M0 0.828125H125L111.025 14.3566L125 28.1179H0V0.828125Z" fill="#3857F7"/>
<path d="M35.2802 14.4736H33.7772V17.062H32.9291V10.6636H35.0473C35.768 10.6636 36.3217 10.8276 36.7084 11.1558C37.098 11.4839 37.2929 11.9614 37.2929 12.5884C37.2929 12.9868 37.1845 13.334 36.9677 13.6299C36.7538 13.9258 36.455 14.147 36.0712 14.2935L37.5741 17.0093V17.062H36.6688L35.2802 14.4736ZM33.7772 13.7837H35.0736C35.4926 13.7837 35.8251 13.6753 36.0712 13.4585C36.3202 13.2417 36.4447 12.9517 36.4447 12.5884C36.4447 12.1929 36.3261 11.8896 36.0888 11.6787C35.8544 11.4678 35.5145 11.3608 35.0692 11.3579H33.7772V13.7837ZM40.3251 17.1499C39.6806 17.1499 39.1561 16.939 38.7518 16.5171C38.3476 16.0923 38.1454 15.5254 38.1454 14.8164V14.667C38.1454 14.1953 38.2348 13.7749 38.4135 13.4058C38.5951 13.0337 38.8471 12.7437 39.1693 12.5356C39.4945 12.3247 39.8461 12.2192 40.224 12.2192C40.8422 12.2192 41.3226 12.4229 41.6654 12.8301C42.0082 13.2373 42.1796 13.8203 42.1796 14.5791V14.9175H38.9584C38.9701 15.3862 39.1063 15.7656 39.3671 16.0557C39.6308 16.3428 39.9647 16.4863 40.369 16.4863C40.6561 16.4863 40.8993 16.4277 41.0985 16.3105C41.2977 16.1934 41.4721 16.0381 41.6215 15.8447L42.1181 16.2314C41.7196 16.8438 41.122 17.1499 40.3251 17.1499ZM40.224 12.8872C39.8959 12.8872 39.6205 13.0073 39.3978 13.2476C39.1752 13.4849 39.0375 13.8188 38.9848 14.2495H41.3666V14.188C41.3432 13.7749 41.2318 13.4556 41.0326 13.23C40.8334 13.0015 40.5639 12.8872 40.224 12.8872ZM45.0316 16.4863C45.3217 16.4863 45.5751 16.3984 45.7919 16.2227C46.0087 16.0469 46.1288 15.8271 46.1522 15.5635H46.9213C46.9066 15.8359 46.8129 16.0952 46.64 16.3413C46.4672 16.5874 46.2357 16.7837 45.9457 16.9302C45.6586 17.0767 45.3539 17.1499 45.0316 17.1499C44.3842 17.1499 43.8685 16.9346 43.4848 16.5039C43.1039 16.0703 42.9135 15.4785 42.9135 14.7285V14.5923C42.9135 14.1294 42.9984 13.7178 43.1684 13.3574C43.3383 12.9971 43.5814 12.7173 43.8978 12.5181C44.2172 12.3188 44.5936 12.2192 45.0272 12.2192C45.5604 12.2192 46.0028 12.3789 46.3544 12.6982C46.7089 13.0176 46.8978 13.4321 46.9213 13.9419H46.1522C46.1288 13.6343 46.0116 13.3823 45.8007 13.186C45.5927 12.9868 45.3349 12.8872 45.0272 12.8872C44.6142 12.8872 44.2934 13.0366 44.0648 13.3354C43.8393 13.6313 43.7265 14.0605 43.7265 14.623V14.7769C43.7265 15.3247 43.8393 15.7466 44.0648 16.0425C44.2904 16.3384 44.6127 16.4863 45.0316 16.4863ZM47.62 14.6406C47.62 14.1748 47.7108 13.7559 47.8925 13.3838C48.077 13.0117 48.3319 12.7246 48.6571 12.5225C48.9852 12.3203 49.3588 12.2192 49.7777 12.2192C50.4252 12.2192 50.9481 12.4434 51.3466 12.8916C51.7479 13.3398 51.9486 13.936 51.9486 14.6802V14.7373C51.9486 15.2002 51.8593 15.6162 51.6806 15.9854C51.5048 16.3516 51.2514 16.6372 50.9203 16.8423C50.5922 17.0474 50.2143 17.1499 49.7865 17.1499C49.142 17.1499 48.619 16.9258 48.2177 16.4775C47.8192 16.0293 47.62 15.436 47.62 14.6978V14.6406ZM48.4374 14.7373C48.4374 15.2646 48.559 15.688 48.8021 16.0073C49.0482 16.3267 49.3764 16.4863 49.7865 16.4863C50.1996 16.4863 50.5277 16.3252 50.7709 16.0029C51.0141 15.6777 51.1356 15.2236 51.1356 14.6406C51.1356 14.1191 51.0111 13.6973 50.7621 13.375C50.516 13.0498 50.1879 12.8872 49.7777 12.8872C49.3764 12.8872 49.0526 13.0469 48.8065 13.3662C48.5604 13.6855 48.4374 14.1426 48.4374 14.7373ZM53.7328 12.3071L53.7548 12.8345C54.1034 12.4243 54.5736 12.2192 55.1654 12.2192C55.8305 12.2192 56.2831 12.4741 56.5233 12.9839C56.6815 12.7554 56.8866 12.5708 57.1386 12.4302C57.3934 12.2896 57.6937 12.2192 58.0394 12.2192C59.0824 12.2192 59.6127 12.7715 59.6303 13.876V17.062H58.8173V13.9243C58.8173 13.5845 58.7396 13.3311 58.5844 13.1641C58.4291 12.9941 58.1684 12.9092 57.8021 12.9092C57.5004 12.9092 57.2499 13 57.0507 13.1816C56.8515 13.3604 56.7357 13.6021 56.7035 13.9067V17.062H55.8861V13.9463C55.8861 13.2549 55.5477 12.9092 54.871 12.9092C54.3378 12.9092 53.973 13.1362 53.7768 13.5903V17.062H52.9638V12.3071H53.7328ZM61.6254 12.3071L61.6474 12.8345C61.996 12.4243 62.4662 12.2192 63.058 12.2192C63.723 12.2192 64.1757 12.4741 64.4159 12.9839C64.5741 12.7554 64.7792 12.5708 65.0311 12.4302C65.286 12.2896 65.5863 12.2192 65.932 12.2192C66.975 12.2192 67.5053 12.7715 67.5228 13.876V17.062H66.7099V13.9243C66.7099 13.5845 66.6322 13.3311 66.4769 13.1641C66.3217 12.9941 66.0609 12.9092 65.6947 12.9092C65.393 12.9092 65.1425 13 64.9433 13.1816C64.744 13.3604 64.6283 13.6021 64.5961 13.9067V17.062H63.7787V13.9463C63.7787 13.2549 63.4403 12.9092 62.7636 12.9092C62.2304 12.9092 61.8656 13.1362 61.6693 13.5903V17.062H60.8563V12.3071H61.6254ZM70.7265 17.1499C70.0819 17.1499 69.5575 16.939 69.1532 16.5171C68.7489 16.0923 68.5468 15.5254 68.5468 14.8164V14.667C68.5468 14.1953 68.6361 13.7749 68.8148 13.4058C68.9965 13.0337 69.2484 12.7437 69.5707 12.5356C69.8959 12.3247 70.2475 12.2192 70.6254 12.2192C71.2435 12.2192 71.724 12.4229 72.0668 12.8301C72.4096 13.2373 72.5809 13.8203 72.5809 14.5791V14.9175H69.3598C69.3715 15.3862 69.5077 15.7656 69.7684 16.0557C70.0321 16.3428 70.3661 16.4863 70.7704 16.4863C71.0575 16.4863 71.3007 16.4277 71.4999 16.3105C71.6991 16.1934 71.8734 16.0381 72.0228 15.8447L72.5194 16.2314C72.121 16.8438 71.5233 17.1499 70.7265 17.1499ZM70.6254 12.8872C70.2973 12.8872 70.0219 13.0073 69.7992 13.2476C69.5766 13.4849 69.4389 13.8188 69.3861 14.2495H71.768V14.188C71.7445 13.7749 71.6332 13.4556 71.434 13.23C71.2348 13.0015 70.9652 12.8872 70.6254 12.8872ZM74.2948 12.3071L74.3212 12.9048C74.6845 12.4478 75.1591 12.2192 75.745 12.2192C76.7499 12.2192 77.2567 12.7861 77.2655 13.9199V17.062H76.4525V13.9155C76.4496 13.5728 76.3705 13.3193 76.2152 13.1553C76.0629 12.9912 75.8241 12.9092 75.4989 12.9092C75.2352 12.9092 75.0038 12.9795 74.8046 13.1201C74.6054 13.2607 74.4501 13.4453 74.3388 13.6738V17.062H73.5258V12.3071H74.2948ZM78.2938 14.645C78.2938 13.9155 78.4667 13.3296 78.8124 12.8872C79.1581 12.4419 79.6107 12.2192 80.1703 12.2192C80.7269 12.2192 81.1679 12.4097 81.4931 12.7905V10.312H82.306V17.062H81.559L81.5194 16.5522C81.1942 16.9507 80.7416 17.1499 80.1615 17.1499C79.6107 17.1499 79.161 16.9243 78.8124 16.4731C78.4667 16.022 78.2938 15.4331 78.2938 14.7065V14.645ZM79.1068 14.7373C79.1068 15.2764 79.2182 15.6982 79.4408 16.0029C79.6635 16.3076 79.9711 16.46 80.3637 16.46C80.8793 16.46 81.2558 16.2285 81.4931 15.7656V13.5815C81.2499 13.1333 80.8764 12.9092 80.3725 12.9092C79.974 12.9092 79.6635 13.063 79.4408 13.3706C79.2182 13.6782 79.1068 14.1338 79.1068 14.7373ZM85.5448 17.1499C84.9003 17.1499 84.3759 16.939 83.9716 16.5171C83.5673 16.0923 83.3651 15.5254 83.3651 14.8164V14.667C83.3651 14.1953 83.4545 13.7749 83.6332 13.4058C83.8148 13.0337 84.0668 12.7437 84.3891 12.5356C84.7142 12.3247 85.0658 12.2192 85.4437 12.2192C86.0619 12.2192 86.5424 12.4229 86.8851 12.8301C87.2279 13.2373 87.3993 13.8203 87.3993 14.5791V14.9175H84.1781C84.1898 15.3862 84.3261 15.7656 84.5868 16.0557C84.8505 16.3428 85.1845 16.4863 85.5888 16.4863C85.8759 16.4863 86.119 16.4277 86.3183 16.3105C86.5175 16.1934 86.6918 16.0381 86.8412 15.8447L87.3378 16.2314C86.9393 16.8438 86.3417 17.1499 85.5448 17.1499ZM85.4437 12.8872C85.1156 12.8872 84.8402 13.0073 84.6176 13.2476C84.3949 13.4849 84.2572 13.8188 84.2045 14.2495H86.5863V14.188C86.5629 13.7749 86.4516 13.4556 86.2523 13.23C86.0531 13.0015 85.7836 12.8872 85.4437 12.8872ZM88.1464 14.645C88.1464 13.9155 88.3192 13.3296 88.6649 12.8872C89.0106 12.4419 89.4633 12.2192 90.0228 12.2192C90.5795 12.2192 91.0204 12.4097 91.3456 12.7905V10.312H92.1586V17.062H91.4115L91.372 16.5522C91.0468 16.9507 90.5941 17.1499 90.0141 17.1499C89.4633 17.1499 89.0136 16.9243 88.6649 16.4731C88.3192 16.022 88.1464 15.4331 88.1464 14.7065V14.645ZM88.9594 14.7373C88.9594 15.2764 89.0707 15.6982 89.2934 16.0029C89.516 16.3076 89.8236 16.46 90.2162 16.46C90.7318 16.46 91.1083 16.2285 91.3456 15.7656V13.5815C91.1024 13.1333 90.7289 12.9092 90.225 12.9092C89.8266 12.9092 89.516 13.063 89.2934 13.3706C89.0707 13.6782 88.9594 14.1338 88.9594 14.7373Z" fill="white"/>
</svg>
